<?xml version="1.0" standalone="no"?>
<!DOCTYPE svg PUBLIC "-//W3C//DTD SVG 20010904//EN"
 "http://www.w3.org/TR/2001/REC-SVG-20010904/DTD/svg10.dtd">
<svg version="1.0" xmlns="http://www.w3.org/2000/svg"
 width="736.000000pt" height="736.000000pt" viewBox="0 0 736.000000 736.000000"
 preserveAspectRatio="xMidYMid meet">

<g transform="translate(0.000000,736.000000) scale(0.100000,-0.100000)"
fill="#000000" stroke="none">
<path d="M5195 6479 c-16 -6 -69 -7 -117 -4 -108 8 -269 -11 -321 -37 -21 -10
-72 -23 -113 -27 -71 -9 -77 -11 -138 -65 -37 -32 -74 -56 -86 -56 -38 0 -150
-61 -183 -100 -18 -21 -49 -43 -72 -50 -22 -7 -57 -21 -77 -31 -54 -27 -100
-24 -139 8 -55 47 -193 41 -330 -13 -45 -18 -74 -64 -56 -88 11 -15 24 -15
136 -6 117 10 126 10 150 -8 14 -11 26 -24 26 -30 0 -11 -116 -92 -132 -92 -6
0 -27 -13 -48 -30 -21 -17 -50 -30 -65 -30 -15 0 -52 -13 -82 -29 -30 -16 -72
-33 -94 -37 -21 -4 -58 -17 -82 -30 -44 -23 -74 -25 -125 -5 -44 17 -94 13
-140 -11 -28 -14 -61 -22 -97 -22 -100 -1 -244 15 -283 31 -35 15 -43 15 -109
-2 -54 -14 -105 -18 -217 -17 -241 1 -410 -14 -478 -42 -32 -14 -84 -27 -115
-31 -37 -4 -84 -20 -134 -46 -43 -21 -85 -39 -93 -39 -15 -1 -36 -12 -163 -87
-29 -18 -73 -36 -97 -42 -49 -11 -55 -15 -79 -59 -9 -17 -28 -50 -41 -74 -13
-23 -44 -68 -68 -98 -39 -48 -71 -78 -181 -171 -12 -10 -22 -26 -22 -35 0 -9
-11 -29 -25 -46 -16 -18 -25 -42 -25 -62 0 -20 -23 -79 -60 -152 -33 -65 -60
-125 -60 -132 0 -7 -11 -34 -24 -60 -18 -34 -25 -62 -24 -102 0 -35 -6 -69
-17 -90 -13 -26 -16 -47 -11 -94 3 -34 1 -79 -5 -101 -6 -22 -16 -67 -21 -100
-10 -56 -9 -65 17 -120 15 -33 29 -76 32 -95 3 -19 16 -59 29 -88 13 -29 24
-57 24 -63 0 -20 31 -70 75 -119 25 -28 45 -57 45 -66 0 -27 37 -88 72 -119
22 -20 40 -49 51 -85 15 -47 24 -59 61 -81 29 -18 51 -42 67 -74 20 -40 32
-51 70 -65 26 -9 62 -33 81 -52 25 -26 46 -38 78 -43 25 -4 65 -13 90 -21 25
-7 62 -16 83 -19 21 -4 52 -19 71 -35 24 -22 44 -30 70 -30 43 0 82 -18 115
-54 30 -32 77 -46 155 -46 41 0 70 -6 97 -22 22 -12 39 -25 39 -29 0 -13 66
-37 124 -44 33 -4 76 -15 95 -26 20 -10 44 -19 53 -19 24 0 45 -35 53 -90 4
-25 17 -65 30 -90 12 -25 25 -58 29 -75 11 -46 32 -73 76 -95 24 -12 45 -33
55 -54 21 -43 61 -61 118 -52 23 4 69 9 101 11 72 6 102 29 111 87 14 80 64
96 164 54 31 -13 81 -33 111 -46 30 -13 87 -26 126 -29 49 -4 78 -12 92 -24
11 -10 40 -24 64 -32 92 -28 158 -64 178 -97 26 -43 34 -72 26 -103 -5 -20
-13 -25 -36 -25 -41 0 -155 60 -209 110 -47 44 -92 70 -163 95 -60 21 -70 19
-148 -20 -38 -19 -81 -35 -94 -35 -15 0 -51 -21 -88 -50 -35 -27 -78 -56 -96
-65 -82 -36 -140 -114 -152 -203 -4 -31 -15 -75 -25 -97 -10 -22 -22 -76 -26
-120 -9 -96 -30 -189 -53 -232 -32 -64 -17 -104 55 -137 30 -14 50 -33 61 -56
33 -66 59 -80 149 -80 l79 0 0 -31 c0 -37 -36 -87 -91 -125 -39 -27 -41 -27
-69 -11 -47 28 -66 21 -141 -49 l-71 -66 -51 4 c-43 4 -63 12 -113 51 -61 46
-74 67 -74 120 0 57 -55 139 -165 245 -121 118 -180 152 -262 152 -61 0 -152
31 -179 61 -16 18 -19 41 -22 162 -3 129 -5 144 -28 183 -41 69 -98 100 -198
109 -47 4 -113 4 -148 1 -204 -20 -752 -23 -899 -6 -42 5 -117 6 -165 3 -80
-6 -92 -9 -117 -35 -26 -26 -28 -33 -22 -76 4 -31 1 -63 -8 -92 -20 -62 -30
-364 -16 -510 6 -63 13 -151 16 -195 4 -75 7 -82 38 -111 20 -18 38 -47 45
-73 7 -26 29 -62 54 -90 23 -25 48 -60 55 -78 7 -18 24 -39 36 -47 13 -9 31
-29 41 -45 9 -16 27 -34 40 -40 12 -5 30 -23 39 -39 18 -29 128 -92 163 -92 9
0 49 -15 87 -34 39 -18 86 -37 105 -41 19 -4 47 -14 63 -22 22 -11 44 -12 120
-3 183 21 201 26 255 59 73 46 82 40 79 -59 -1 -71 1 -83 21 -103 19 -18 34
-22 86 -22 73 0 96 -14 96 -57 0 -65 7 -68 148 -68 125 1 128 1 166 30 22 17
45 30 51 30 6 0 24 -13 40 -30 l29 -30 207 0 207 0 7 29 c3 16 15 37 25 46 11
10 26 39 35 65 9 27 23 54 31 61 9 7 25 31 36 53 11 22 39 65 62 95 50 67 133
180 178 244 80 115 150 208 240 320 32 39 65 92 73 118 13 39 26 54 73 86 31
21 82 60 112 87 30 26 68 54 85 61 36 16 161 45 192 45 32 0 249 55 316 80 79
30 108 22 156 -43 53 -72 58 -75 216 -156 150 -76 179 -83 255 -56 53 19 80 7
80 -36 0 -16 12 -53 26 -81 14 -28 31 -79 37 -112 12 -70 14 -230 2 -298 -7
-42 -5 -49 17 -70 36 -34 58 -81 58 -128 0 -27 9 -54 26 -80 22 -32 26 -50 25
-102 0 -45 5 -75 21 -107 18 -37 20 -50 11 -83 l-10 -38 93 0 c94 0 94 0 94
25 0 14 -7 42 -15 62 -8 19 -15 50 -15 67 -1 17 -8 49 -16 71 -9 22 -21 77
-29 122 -7 46 -22 98 -33 118 -12 19 -26 54 -32 77 -6 24 -25 62 -41 85 -29
41 -29 44 -29 175 -1 139 -18 275 -44 343 -8 22 -15 62 -16 89 0 43 5 55 51
113 28 36 57 80 65 99 19 44 18 255 0 304 -8 19 -20 50 -27 69 -13 31 -12 35
5 45 11 6 83 74 160 151 149 149 193 179 287 195 161 28 158 27 174 10 8 -9
15 -26 15 -38 0 -25 44 -62 75 -62 24 0 105 -54 105 -70 0 -16 52 -38 120 -50
36 -6 84 -23 108 -37 37 -21 51 -24 95 -18 55 6 113 8 175 5 21 -1 54 7 77 19
21 12 53 21 70 21 17 0 51 11 75 24 25 14 65 34 90 46 25 11 67 32 93 46 42
23 56 25 104 19 53 -6 113 7 113 25 0 16 85 102 119 120 50 26 100 69 117 102
8 15 35 50 59 78 25 28 53 67 64 88 11 20 33 50 50 66 17 17 31 35 31 41 0 7
9 20 19 29 11 10 36 52 57 93 20 42 50 91 66 108 58 67 58 63 58 562 0 355 -4
476 -15 538 -8 44 -14 100 -15 125 0 43 -40 171 -72 235 -8 17 -19 52 -22 78
-5 35 -17 59 -42 86 -19 21 -34 43 -34 49 0 6 -11 24 -24 40 -14 16 -34 53
-46 82 -26 65 -49 99 -118 169 -29 30 -64 75 -78 100 -17 33 -39 54 -74 73
-54 30 -70 63 -70 148 0 27 -10 67 -26 100 -14 30 -30 77 -35 104 -7 37 -20
61 -53 96 -24 26 -52 62 -61 81 -23 44 -60 91 -162 209 -46 52 -98 112 -115
133 -18 21 -49 47 -68 57 -20 10 -78 59 -130 109 -55 52 -107 93 -123 96 -16
4 -56 33 -90 64 -34 32 -78 63 -97 71 -19 8 -49 24 -66 37 -17 13 -55 30 -85
38 -30 9 -61 20 -71 25 -9 5 -40 12 -70 16 -29 3 -77 19 -107 36 -42 23 -153
62 -164 57 -1 0 -15 -5 -32 -10z m144 -160 c22 -13 75 -26 141 -36 76 -11 115
-21 140 -39 19 -13 60 -28 90 -35 38 -8 67 -22 94 -46 21 -20 59 -44 85 -56
25 -11 61 -37 79 -58 18 -21 47 -47 66 -58 18 -12 45 -38 59 -60 14 -21 43
-47 64 -57 21 -11 47 -35 58 -54 11 -19 45 -59 77 -90 31 -30 63 -69 71 -85 9
-17 41 -68 71 -114 31 -45 56 -88 56 -94 0 -7 14 -32 30 -56 17 -24 30 -53 30
-64 0 -11 13 -41 29 -66 41 -66 56 -142 42 -214 -13 -74 -6 -89 61 -123 63
-32 86 -58 94 -107 7 -41 39 -95 64 -108 8 -4 30 -13 48 -20 36 -13 60 -51 85
-134 25 -84 46 -126 73 -148 37 -29 54 -75 61 -170 5 -67 10 -87 31 -112 24
-29 24 -34 19 -129 -6 -98 -6 -99 30 -174 35 -73 35 -76 29 -159 l-7 -85 40
-37 c37 -35 41 -42 41 -88 0 -28 -6 -58 -15 -69 -11 -14 -13 -35 -9 -80 8 -78
-27 -196 -90 -309 -25 -44 -57 -105 -71 -135 -42 -88 -48 -96 -95 -132 -38
-29 -47 -43 -60 -93 -9 -33 -28 -81 -44 -107 -35 -60 -128 -146 -203 -189 -32
-18 -73 -43 -92 -56 -19 -13 -45 -23 -58 -23 -13 0 -37 -6 -52 -14 -27 -14
-89 -32 -212 -60 -31 -8 -67 -21 -81 -30 -20 -13 -50 -17 -131 -17 -57 0 -122
3 -143 7 -72 13 -194 64 -255 105 -64 44 -96 85 -125 159 -10 25 -28 60 -40
78 -54 79 -74 227 -46 327 7 22 12 88 12 147 0 95 3 115 31 185 17 43 37 102
45 131 16 59 53 137 94 197 15 22 56 85 90 140 35 55 95 136 135 180 40 44 79
94 88 111 9 17 41 53 72 80 63 55 85 89 85 134 0 32 -30 70 -55 70 -50 0 -141
-77 -189 -161 -14 -25 -37 -56 -52 -70 -14 -13 -37 -46 -51 -74 -14 -27 -45
-69 -70 -93 -24 -24 -57 -71 -74 -105 -42 -91 -89 -169 -128 -212 -48 -55 -82
-138 -92 -225 -5 -41 -26 -119 -46 -173 -34 -92 -35 -101 -27 -165 10 -72 3
-153 -17 -215 -10 -30 -10 -48 -1 -83 13 -48 14 -133 3 -174 -11 -38 -119 -95
-211 -110 -71 -11 -77 -14 -115 -58 -22 -26 -76 -82 -120 -125 -48 -47 -90
-99 -105 -129 -14 -28 -30 -53 -36 -55 -6 -2 -26 33 -44 77 -29 72 -37 83 -79
108 -54 32 -110 34 -231 8 -135 -28 -194 -52 -315 -125 -141 -86 -194 -104
-224 -77 -11 10 -23 35 -26 55 -23 143 -45 189 -127 267 -39 38 -68 56 -108
68 -30 9 -75 23 -100 31 -25 8 -81 21 -124 30 -43 8 -89 21 -102 30 -13 8 -57
24 -98 35 -41 12 -122 43 -180 70 -58 28 -111 50 -119 50 -32 0 -169 50 -271
99 -60 29 -137 59 -170 68 -34 8 -78 24 -98 34 -21 11 -48 19 -60 19 -13 0
-42 11 -64 24 -44 25 -146 60 -204 70 -19 4 -62 24 -97 46 -35 21 -85 46 -111
54 -27 7 -71 25 -98 38 -27 14 -76 32 -109 42 -143 41 -250 107 -309 190 -25
34 -56 68 -70 76 -29 15 -46 38 -66 90 -7 19 -28 55 -46 80 -30 42 -52 83
-144 270 -40 83 -63 162 -81 288 -12 87 -5 137 51 332 10 36 21 81 25 100 13
69 58 192 80 218 38 47 92 135 114 187 12 28 38 64 57 80 67 55 141 130 203
202 58 68 67 75 215 148 252 124 468 175 742 175 92 0 146 5 185 16 79 24 349
24 401 1 48 -22 135 -22 184 0 29 12 65 16 139 15 88 -1 110 2 185 29 175 63
325 124 360 148 19 13 80 45 135 72 79 37 115 62 171 115 67 65 88 80 175 119
20 9 42 27 49 41 22 41 106 84 284 145 33 11 85 34 116 50 31 16 83 34 116 40
32 6 81 18 107 26 32 10 68 14 105 10 32 -2 80 -1 107 3 69 11 132 4 174 -21z
m-2607 -3846 c36 -33 11 -113 -37 -113 -29 0 -75 52 -75 85 0 43 75 62 112 28z
m1737 -459 c58 -23 68 -45 76 -169 8 -121 16 -142 69 -175 33 -20 36 -25 36
-71 0 -27 -7 -66 -16 -87 -8 -20 -20 -59 -25 -86 -11 -57 -27 -79 -72 -97 -18
-7 -44 -21 -60 -31 -15 -11 -37 -18 -50 -16 -19 3 -22 8 -19 47 1 24 16 72 33
108 35 76 46 162 30 248 -9 48 -17 65 -43 87 -18 15 -38 28 -45 28 -6 0 -44
11 -84 25 -75 25 -93 25 -162 -1 -50 -19 -67 -18 -67 5 0 26 129 151 156 151
12 0 50 11 85 25 76 29 105 30 158 9z m-1128 -39 c28 -19 58 -35 68 -35 9 0
28 -11 44 -24 20 -17 27 -32 27 -59 0 -51 -25 -63 -75 -35 -75 39 -140 50
-268 43 -110 -7 -119 -9 -135 -32 -9 -13 -27 -37 -39 -53 -21 -25 -23 -39 -23
-131 1 -57 5 -138 10 -179 7 -63 5 -83 -11 -129 -25 -73 -33 -80 -67 -59 -15
9 -48 28 -73 42 -65 35 -76 74 -40 144 10 20 26 73 36 117 15 75 57 179 76
191 5 3 9 13 9 23 0 26 91 94 195 146 22 11 42 22 45 25 3 4 28 16 55 28 63
27 99 22 166 -23z m-2886 -262 c63 -24 109 -27 143 -9 39 20 82 20 108 1 27
-21 98 -18 165 6 55 20 59 20 108 4 45 -15 53 -15 79 -1 44 23 421 30 451 9
46 -32 55 -69 53 -210 -2 -127 -1 -132 23 -161 16 -19 53 -40 111 -62 78 -29
87 -35 100 -69 8 -20 21 -49 29 -64 18 -35 19 -71 2 -85 -7 -6 -32 -14 -55
-18 -55 -9 -140 -72 -169 -126 -16 -28 -23 -58 -23 -93 0 -57 -7 -66 -73 -99
-38 -20 -77 -60 -132 -137 -84 -117 -143 -148 -287 -150 -91 -2 -112 1 -178
26 -41 15 -100 34 -130 42 -106 29 -174 81 -354 273 -104 111 -139 182 -151
301 -4 41 -14 99 -23 129 -12 44 -15 97 -13 265 3 262 1 258 104 249 39 -4 90
-13 112 -21z m3398 -153 c-3 -11 -14 -20 -24 -20 -22 0 -24 11 -7 28 19 19 37
14 31 -8z m-473 -102 c-1 -22 -25 -46 -52 -53 -39 -10 -47 14 -14 42 29 25 66
31 66 11z m-1293 -335 c42 -44 73 -86 73 -98 0 -11 -16 -40 -35 -64 -40 -50
-42 -61 -17 -84 14 -13 35 -18 114 -26 4 -1 37 -28 73 -60 112 -102 212 -139
286 -106 55 25 65 12 40 -49 -26 -58 -67 -118 -132 -193 -28 -32 -67 -87 -85
-123 -19 -36 -42 -78 -52 -95 -9 -16 -37 -68 -61 -113 -60 -111 -72 -117 -122
-61 -22 24 -39 47 -39 51 0 5 -15 25 -33 45 -69 79 -97 135 -97 196 0 66 -22
97 -69 97 -38 0 -55 22 -48 63 11 69 34 104 94 145 73 49 86 65 78 91 -6 19
-12 20 -83 15 -45 -4 -93 -14 -115 -25 -51 -26 -83 -24 -113 6 -22 23 -25 31
-19 68 13 73 52 142 91 160 44 21 64 21 109 0 33 -16 37 -16 51 -1 21 21 13
56 -22 98 -22 25 -25 37 -21 68 7 38 37 72 65 72 8 0 48 -35 89 -77z m-495
-498 c25 -44 64 -65 118 -65 95 0 106 -44 29 -125 -39 -41 -60 -55 -90 -60
-25 -4 -46 -16 -60 -33 -25 -33 -56 -51 -87 -52 -33 0 -53 51 -42 110 11 59
57 215 70 240 16 30 38 24 62 -15z m216 -362 c5 -63 -10 -83 -61 -83 -76 0
-85 30 -30 90 27 31 43 40 62 38 23 -3 26 -8 29 -45z"/>
<path d="M4536 6061 c-9 -10 -19 -32 -22 -49 -6 -28 -3 -33 20 -42 15 -5 49
-10 76 -10 43 0 55 -5 95 -40 25 -22 56 -40 68 -40 39 1 111 21 119 33 25 39
-6 80 -97 132 -44 26 -61 29 -147 31 -80 2 -99 -1 -112 -15z"/>
<path d="M4212 5124 c-23 -16 -52 -64 -52 -85 0 -14 76 -89 90 -89 5 0 26 -14
45 -32 28 -24 50 -33 98 -40 33 -4 76 -17 94 -28 23 -14 52 -20 90 -20 39 0
66 -6 90 -21 30 -19 38 -20 83 -9 79 19 124 86 83 123 -29 25 -122 58 -208 73
-116 20 -168 36 -280 89 -55 26 -103 49 -106 51 -3 2 -15 -4 -27 -12z"/>
<path d="M3611 5074 c-46 -7 -102 -20 -125 -30 -30 -13 -76 -18 -176 -20 -74
-2 -141 -3 -148 -3 -16 -1 -42 -61 -42 -95 0 -14 8 -30 18 -35 9 -5 76 -10
147 -12 134 -3 136 -2 290 51 28 9 77 22 110 29 64 12 112 47 102 75 -7 17
-43 42 -72 48 -11 3 -58 -1 -104 -8z"/>
<path d="M2360 4400 c-53 -3 -97 -12 -117 -23 -18 -9 -41 -17 -52 -17 -11 0
-46 -9 -76 -21 -62 -23 -95 -62 -95 -111 0 -15 -5 -59 -12 -96 -9 -56 -9 -75
2 -102 16 -40 48 -70 72 -70 10 0 35 -15 55 -34 21 -18 47 -36 58 -39 11 -4
70 -2 130 4 61 6 144 10 186 9 67 -1 84 2 135 28 78 40 124 92 138 159 6 24
-1 47 -28 106 -20 41 -36 80 -36 87 0 30 -32 69 -72 85 -61 26 -188 41 -288
35z m219 -129 c36 -23 -22 -60 -74 -47 -27 7 -35 40 -12 49 20 9 71 7 86 -2z"/>
<path d="M6725 4307 c-18 -15 -28 -35 -32 -67 -9 -69 -18 -80 -64 -80 -52 0
-58 17 -24 69 15 22 25 47 21 56 -11 31 -41 15 -76 -41 -43 -70 -81 -100 -145
-114 -110 -25 -184 -88 -308 -267 -32 -45 -73 -116 -93 -157 -20 -42 -48 -86
-63 -97 -14 -11 -35 -35 -46 -54 -11 -18 -47 -65 -80 -103 -77 -90 -94 -117
-150 -231 -50 -105 -56 -146 -25 -204 25 -46 25 -63 0 -120 -18 -40 -19 -52
-9 -92 7 -29 10 -83 6 -143 -3 -55 -1 -104 4 -114 5 -10 31 -29 57 -42 58 -30
67 -39 81 -92 6 -22 19 -48 28 -56 17 -14 73 -25 165 -33 20 -2 57 -11 82 -20
43 -17 49 -17 108 0 35 9 91 22 125 29 33 7 77 23 96 35 19 11 41 21 50 21 8
0 30 14 48 31 18 16 55 45 83 64 28 19 65 47 81 63 17 15 64 50 105 76 99 65
125 96 139 164 10 52 70 174 91 187 6 4 20 25 31 48 12 23 46 68 75 99 35 37
54 65 54 81 0 16 -20 47 -55 86 -78 88 -77 97 44 263 12 16 11 22 -10 44 -13
15 -44 36 -69 48 -51 25 -50 18 -30 176 17 137 10 207 -23 236 -23 20 -31 22
-57 12 -37 -13 -60 2 -60 40 0 14 -5 55 -11 91 -10 53 -19 73 -44 98 -39 39
-64 41 -100 10z m33 -819 c4 -53 -50 -166 -83 -174 -37 -9 -75 3 -75 24 0 10
15 33 34 51 33 32 41 46 66 114 8 21 16 28 33 25 18 -2 23 -10 25 -40z m-683
-68 c9 -15 -74 -150 -91 -150 -18 0 -17 14 2 70 24 69 70 110 89 80z m65 -258
c0 -24 -49 -94 -61 -87 -15 10 -11 37 11 73 21 35 50 43 50 14z m-237 -43 c-2
-38 -42 -99 -64 -99 -35 0 -27 66 12 103 35 32 55 31 52 -4z m522 -19 c10 -16
-68 -93 -90 -89 -17 4 -14 10 24 52 45 48 55 54 66 37z m494 -26 c-14 -18 -24
-11 -15 11 3 9 11 13 16 10 8 -5 7 -11 -1 -21z m-980 -288 c22 -26 -11 -108
-38 -92 -16 10 -23 63 -11 85 12 24 33 27 49 7z"/>
<path d="M403 2705 c-29 -20 -38 -62 -19 -90 9 -13 19 -43 22 -67 4 -24 13
-55 21 -71 13 -26 11 -33 -42 -134 -42 -82 -55 -118 -55 -150 0 -55 44 -160
79 -190 30 -27 82 -30 105 -7 22 21 20 79 -3 112 -34 47 -36 97 -7 147 14 24
26 53 26 64 0 12 12 39 26 61 20 30 25 47 21 72 -20 112 -27 138 -50 185 -39
77 -79 99 -124 68z"/>
<path d="M950 2711 c-39 -10 -56 -51 -42 -97 6 -22 14 -70 17 -109 5 -64 3
-73 -19 -100 -62 -75 -99 -131 -116 -170 -18 -42 -18 -45 2 -124 26 -104 51
-133 110 -129 38 3 43 6 52 36 6 23 6 44 -2 66 -7 18 -12 56 -12 84 0 42 5 57
29 84 16 18 36 49 45 68 9 19 27 50 40 68 21 28 23 40 20 95 -12 160 -58 244
-124 228z"/>
<path d="M1400 2683 c-14 -19 -19 -34 -14 -48 4 -11 9 -59 11 -107 5 -98 13
-82 -109 -225 -46 -54 -48 -58 -48 -119 0 -125 42 -204 109 -204 44 0 64 30
57 82 -22 139 -21 142 23 186 23 22 41 47 41 54 0 8 12 25 26 39 14 13 31 35
38 49 13 29 13 152 -2 223 -18 90 -87 127 -132 70z"/>
<path d="M4181 369 c-10 -11 -27 -51 -36 -87 -9 -37 -25 -81 -36 -98 -10 -17
-21 -53 -25 -80 -3 -27 -7 -61 -9 -76 -4 -27 -3 -28 44 -28 55 0 57 3 86 118
9 35 25 86 35 113 20 51 29 127 16 147 -12 19 -54 14 -75 -9z"/>
</g>
</svg>
